<?xml version="1.0" encoding="utf-8"?>
<!-- Generator: Adobe Illustrator 26.4.1, SVG Export Plug-In . SVG Version: 6.00 Build 0)  -->
<svg version="1.1" id="Layer_1" xmlns="http://www.w3.org/2000/svg" xmlns:xlink="http://www.w3.org/1999/xlink" x="0px" y="0px"
	 viewBox="0 0 266 85" style="enable-background:new 0 0 266 85;" xml:space="preserve">
<style type="text/css">
	.st0{fill:#00F252;}
</style>
<g>
	<g>
		<path class="st0" d="M91.9,12.55h18.82c12.09,0,20.98,3.71,20.98,14.5c0,5.54-3.02,10.94-8.17,12.74v0.36
			c6.51,1.48,11.3,6.01,11.3,13.96c0,11.76-9.64,17.27-22.59,17.27H91.9V12.55z M109.78,36.83c8.2,0,11.69-3.2,11.69-8.31
			c0-5.68-3.85-7.84-11.48-7.84h-7.66v16.15H109.78z M111.15,63.24c8.63,0,13.46-3.09,13.46-9.71c0-6.19-4.68-8.89-13.46-8.89h-8.81
			v18.6H111.15z"/>
		<path class="st0" d="M142.32,59.5c0-9.46,7.84-14.39,25.98-16.33c-0.14-4.75-2.05-8.71-8.02-8.71c-4.39,0-8.53,1.98-12.41,4.35
			l-3.81-6.91c4.86-3.06,11.12-5.79,18.13-5.79c11.05,0,16.48,6.8,16.48,19.1v26.16h-8.49l-0.79-4.89h-0.29
			c-3.96,3.38-8.49,5.97-13.71,5.97C147.64,72.45,142.32,67.2,142.32,59.5z M168.3,59.54v-9.93c-11.98,1.51-15.97,4.64-15.97,9.1
			c0,3.9,2.66,5.61,6.37,5.61C162.29,64.32,165.02,62.56,168.3,59.54z"/>
		<path class="st0" d="M186.72,66.3l4.82-6.58c3.92,3.06,7.72,4.93,12.2,4.93c4.82,0,7.09-2.27,7.09-5.29c0-3.71-4.79-5.36-9.5-7.16
			c-5.79-2.18-12.41-5.5-12.41-12.88c0-7.66,6.19-13.2,16.08-13.2c6.15,0,11.08,2.5,14.68,5.29l-4.75,6.37
			c-3.09-2.27-6.21-3.85-9.68-3.85c-4.44,0-6.55,2.12-6.55,4.89c0,3.49,4.46,4.82,9.25,6.58c5.97,2.23,12.66,5.11,12.66,13.35
			c0,7.59-6.01,13.71-17.16,13.71C197.4,72.45,191.03,69.86,186.72,66.3z"/>
		<path class="st0" d="M226.96,49.32c0-14.36,9.97-23.21,20.36-23.21c11.94,0,18.24,8.63,18.24,20.98c0,1.98-0.22,3.96-0.45,5.04
			h-28.04c0.86,7.84,5.9,12.3,13.02,12.3c3.78,0,7.02-1.19,10.25-3.2l3.53,6.44c-4.21,2.84-9.53,4.79-15.15,4.79
			C236.53,72.45,226.96,63.89,226.96,49.32z M256.6,45.07c0-6.8-3.02-10.94-9.07-10.94c-5.14,0-9.68,3.85-10.58,10.94H256.6z"/>
	</g>
	<g>
		<path class="st0" d="M33.14,33.94c1.97,0.3,3.51,1.87,3.76,3.86c1.3,0.13,2.62,0.2,3.95,0.2c4.91,0,9.61-0.88,13.96-2.49
			c-0.01-0.1-0.01-0.19-0.01-0.29c0-1.69,0.94-3.17,2.33-3.92C52.61,16.77,40.08,5.77,24.7,3.46c-2.99,1.3-5.78,2.94-8.34,4.89
			C24.76,14.43,30.86,23.47,33.14,33.94z"/>
		<path class="st0" d="M59.74,30.77c0.95,0.1,1.81,0.49,2.49,1.09c5.14-3.22,9.51-7.57,12.75-12.71
			C67.86,7.74,55.19,0.14,40.75,0.14c-3.92,0-7.71,0.56-11.3,1.61C43.9,5.48,55.4,16.57,59.74,30.77z"/>
		<path class="st0" d="M28.62,36.1c0.45-0.76,1.11-1.37,1.91-1.76c-2.19-9.82-8-18.5-16.28-24.27c-2.95,2.58-5.52,5.58-7.62,8.91
			C11.64,27.02,19.41,33.17,28.62,36.1z"/>
		<path class="st0" d="M50.52,63.4c0-0.07-0.01-0.14-0.01-0.22c0-2.47,2-4.47,4.47-4.47c0.31,0,0.61,0.03,0.9,0.09
			c1.99-4.77,3.09-10,3.09-15.49c0-1.23-0.06-2.45-0.17-3.65c-1.23-0.13-2.32-0.77-3.04-1.69c-4.64,1.72-9.66,2.66-14.9,2.66
			c-1.49,0-2.96-0.08-4.41-0.23c-0.49,0.96-1.32,1.71-2.32,2.11c0,0.21,0.01,0.41,0.01,0.62c0,6.1-1.27,11.9-3.56,17.14
			c0.95,0.81,1.55,2,1.57,3.34c2.81,0.62,5.72,0.95,8.72,0.95C44.19,64.57,47.42,64.16,50.52,63.4z"/>
		<path class="st0" d="M63.61,34.1c0.09,0.36,0.14,0.73,0.14,1.11c0,1.7-0.95,3.18-2.35,3.94c0.13,1.37,0.2,2.76,0.2,4.16
			c0,5.95-1.21,11.62-3.4,16.77c0.12,0.13,0.24,0.26,0.34,0.4C69.52,55.12,77.7,44.9,80.3,32.62c-0.76-3.86-2.07-7.52-3.85-10.9
			C73.08,26.69,68.7,30.92,63.61,34.1z"/>
		<path class="st0" d="M51.78,66.3c-0.13-0.13-0.24-0.27-0.35-0.41c-3.38,0.85-6.92,1.31-10.56,1.31c-3.25,0-6.42-0.36-9.46-1.05
			c-0.8,1.2-2.17,2-3.72,2c-0.5,0-0.97-0.08-1.42-0.23c-1.83,2.58-3.93,4.96-6.28,7.07c4.43,2.67,9.41,4.51,14.73,5.31
			C41.62,77.3,47.52,72.42,51.78,66.3z"/>
		<path class="st0" d="M81.04,39.42c-3.91,10.35-11.7,18.79-21.6,23.55c0,0.07,0.01,0.14,0.01,0.21c0,2.47-2,4.47-4.47,4.47
			c-0.3,0-0.6-0.03-0.89-0.09c-3.71,5.41-8.63,9.94-14.37,13.17c0.34,0.01,0.68,0.01,1.02,0.01c22.26,0,40.31-18.05,40.31-40.31
			C81.05,40.1,81.05,39.76,81.04,39.42z"/>
		<path class="st0" d="M17.7,73.51c2.43-2.12,4.58-4.51,6.42-7.13c-0.57-0.75-0.91-1.69-0.91-2.7c0-0.09,0-0.18,0.01-0.27
			C12.69,58.66,4.42,49.8,0.47,38.87c-0.02,0.52-0.03,1.05-0.03,1.58C0.44,54.13,7.26,66.23,17.7,73.51z"/>
		<path class="st0" d="M24.14,60.95c0.82-1.05,2.09-1.73,3.53-1.73c0.16,0,0.31,0.01,0.47,0.02c2.17-4.98,3.36-10.45,3.36-16.1
			c0-0.14,0-0.28,0-0.41c-1.9-0.42-3.34-2.06-3.48-4.05c-9.44-2.96-17.49-9.09-22.87-17.14C3.4,24.8,2.1,28.34,1.31,32.07
			C3.84,44.96,12.51,55.64,24.14,60.95z"/>
		<path class="st0" d="M7.11,83.61c3.2,0.82,6.55,1.25,10,1.25c5.12,0,10.01-0.96,14.51-2.69c-5-0.93-9.69-2.77-13.88-5.33
			C14.57,79.59,10.99,81.88,7.11,83.61z"/>
	</g>
</g>
</svg>
