<?xml version="1.0" encoding="utf-8"?>
<!-- Generator: Adobe Illustrator 25.4.1, SVG Export Plug-In . SVG Version: 6.00 Build 0)  -->
<svg version="1.1" id="图层_1" xmlns="http://www.w3.org/2000/svg" xmlns:xlink="http://www.w3.org/1999/xlink" x="0px" y="0px"
	 viewBox="0 0 470 150" fill="#422DDD" style="enable-background:new 0 0 470 150;" xml:space="preserve">
<g>
	<g>
		<path class="st0" d="M162.2,22h33.3c21.4,0,37.1,6.6,37.1,25.7c0,9.8-5.4,19.4-14.5,22.5v0.6c11.5,2.6,20,10.6,20,24.7
			c0,20.8-17.1,30.6-40,30.6h-36V22z M193.9,65c14.5,0,20.7-5.7,20.7-14.7c0-10.1-6.8-13.9-20.3-13.9h-13.6V65H193.9z M196.3,111.7
			c15.3,0,23.8-5.5,23.8-17.2c0-11-8.3-15.7-23.8-15.7h-15.6v32.9H196.3z"/>
		<path class="st0" d="M251.5,105.1c0-16.8,13.9-25.5,46-28.9c-0.3-8.4-3.6-15.4-14.2-15.4c-7.8,0-15.1,3.5-22,7.7l-6.8-12.2
			c8.6-5.4,19.7-10.3,32.1-10.3c19.6,0,29.2,12,29.2,33.8v46.3h-15l-1.4-8.7h-0.5c-7,6-15,10.6-24.3,10.6
			C260.9,128,251.5,118.7,251.5,105.1z M297.5,105.2V87.6c-21.2,2.7-28.3,8.2-28.3,16.1c0,6.9,4.7,9.9,11.3,9.9
			C286.8,113.6,291.7,110.5,297.5,105.2z"/>
		<path class="st0" d="M330.1,117.1l8.5-11.7c6.9,5.4,13.7,8.7,21.6,8.7c8.5,0,12.5-4,12.5-9.4c0-6.6-8.5-9.5-16.8-12.7
			c-10.3-3.9-22-9.7-22-22.8c0-13.6,11-23.4,28.5-23.4c10.9,0,19.6,4.4,26,9.4L380,66.6c-5.5-4-11-6.8-17.1-6.8
			c-7.9,0-11.6,3.8-11.6,8.7c0,6.2,7.9,8.5,16.4,11.7c10.6,3.9,22.4,9,22.4,23.6c0,13.4-10.6,24.3-30.4,24.3
			C349,128,337.7,123.4,330.1,117.1z"/>
		<path class="st0" d="M401.3,87.1c0-25.4,17.6-41.1,36.1-41.1c21.1,0,32.3,15.3,32.3,37.1c0,3.5-0.4,7-0.8,8.9h-49.6
			c1.5,13.9,10.4,21.8,23.1,21.8c6.7,0,12.4-2.1,18.2-5.7l6.2,11.4c-7.5,5-16.9,8.5-26.8,8.5C418.3,128,401.3,112.9,401.3,87.1z
			 M453.8,79.6c0-12-5.4-19.4-16.1-19.4c-9.1,0-17.1,6.8-18.7,19.4H453.8z"/>
	</g>
	<g>
		<path class="st0" d="M58.2,59.9c3.5,0.5,6.2,3.3,6.7,6.8c2.3,0.2,4.6,0.3,7,0.3c8.7,0,17-1.6,24.7-4.4c0-0.2,0-0.3,0-0.5
			c0-3,1.7-5.6,4.1-6.9C92.7,29.4,70.5,10,43.3,5.9C38,8.2,33,11.1,28.5,14.5C43.4,25.3,54.2,41.3,58.2,59.9z"/>
		<path class="st0" d="M105.3,54.2c1.7,0.2,3.2,0.9,4.4,1.9c9.1-5.7,16.8-13.4,22.6-22.5C119.7,13.5,97.3,0,71.7,0
			c-6.9,0-13.7,1-20,2.8C77.3,9.5,97.6,29.1,105.3,54.2z"/>
		<path class="st0" d="M50.2,63.7c0.8-1.3,2-2.4,3.4-3.1c-3.9-17.4-14.2-32.7-28.8-43c-5.2,4.6-9.8,9.9-13.5,15.8
			C20.2,47.6,33.9,58.5,50.2,63.7z"/>
		<path class="st0" d="M89,112c0-0.1,0-0.3,0-0.4c0-4.4,3.5-7.9,7.9-7.9c0.5,0,1.1,0.1,1.6,0.2c3.5-8.4,5.5-17.7,5.5-27.4
			c0-2.2-0.1-4.3-0.3-6.5c-2.2-0.2-4.1-1.4-5.4-3c-8.2,3-17.1,4.7-26.4,4.7c-2.6,0-5.2-0.1-7.8-0.4c-0.9,1.7-2.3,3-4.1,3.7
			c0,0.4,0,0.7,0,1.1c0,10.8-2.3,21.1-6.3,30.4c1.7,1.4,2.7,3.5,2.8,5.9c5,1.1,10.1,1.7,15.4,1.7C77.8,114.1,83.5,113.4,89,112z"/>
		<path class="st0" d="M112.2,60.1c0.2,0.6,0.2,1.3,0.2,2c0,3-1.7,5.6-4.2,7c0.2,2.4,0.4,4.9,0.4,7.4c0,10.5-2.1,20.6-6,29.7
			c0.2,0.2,0.4,0.5,0.6,0.7c19.4-9.5,33.9-27.6,38.5-49.3c-1.3-6.8-3.7-13.3-6.8-19.3C128.9,47,121.2,54.5,112.2,60.1z"/>
		<path class="st0" d="M91.2,117.1c-0.2-0.2-0.4-0.5-0.6-0.7c-6,1.5-12.2,2.3-18.7,2.3c-5.8,0-11.4-0.6-16.8-1.9
			c-1.4,2.1-3.8,3.5-6.6,3.5c-0.9,0-1.7-0.1-2.5-0.4c-3.2,4.6-7,8.8-11.1,12.5c7.8,4.7,16.7,8,26.1,9.4
			C73.2,136.6,83.7,128,91.2,117.1z"/>
		<path class="st0" d="M143,69.6c-6.9,18.3-20.7,33.3-38.2,41.7c0,0.1,0,0.2,0,0.4c0,4.4-3.5,7.9-7.9,7.9c-0.5,0-1.1-0.1-1.6-0.2
			C88.7,129,80,137,69.9,142.7c0.6,0,1.2,0,1.8,0c39.4,0,71.4-31.9,71.4-71.4C143,70.8,143,70.2,143,69.6z"/>
		<path class="st0" d="M30.9,129.9c4.3-3.8,8.1-8,11.4-12.6c-1-1.3-1.6-3-1.6-4.8c0-0.2,0-0.3,0-0.5C22,103.6,7.4,87.9,0.4,68.6
			c0,0.9-0.1,1.9-0.1,2.8C0.3,95.6,12.4,117,30.9,129.9z"/>
		<path class="st0" d="M42.3,107.7c1.4-1.9,3.7-3.1,6.3-3.1c0.3,0,0.6,0,0.8,0c3.8-8.8,5.9-18.5,5.9-28.5c0-0.2,0-0.5,0-0.7
			c-3.4-0.7-5.9-3.6-6.2-7.2C32.4,63,18.2,52.1,8.6,37.9c-3.1,5.8-5.4,12.1-6.8,18.7C6.3,79.3,21.7,98.3,42.3,107.7z"/>
		<path class="st0" d="M12.1,147.8c5.7,1.4,11.6,2.2,17.7,2.2c9.1,0,17.7-1.7,25.7-4.8c-8.9-1.6-17.2-4.9-24.6-9.4
			C25.3,140.7,19,144.7,12.1,147.8z"/>
	</g>
</g>
</svg>
